<svg xmlns="http://www.w3.org/2000/svg" viewBox="0 0 424 552"><g transform="translate(10,10)"><path d="M172.268 501.67C26.97 291.031 0 269.413 0 192 0 85.961 85.961 0 192 0s192 85.961 192 192c0 77.413-26.97 99.031-172.268 309.67-9.535 13.774-29.93 13.773-39.464 0z" fill="#00aeef"/><path d="M192.758 291.697c60.082 0 108.787-48.536 108.787-108.41S252.84 74.88 192.758 74.88 83.97 123.415 83.97 183.288s48.705 108.409 108.788 108.409z" fill="#fff"/><path d="M224.121 267c27.029 0 48.94-22.759 48.94-50.833s-21.911-50.834-48.94-50.834-48.94 22.759-48.94 50.834S197.094 267 224.122 267z" fill="#0a0a0f"/></g></svg>
